<svg width="128" height="128" viewBox="0 0 128 128" fill="none" xmlns="http://www.w3.org/2000/svg">
  <rect width="128" height="128" rx="28" fill="#FFFFFF"/>
  <path d="M64 26C49.64 26 37.02 33.76 30.27 45.34L41.1 53.74C45.44 45.7 54.04 40.25 64 40.25C71.23 40.25 77.75 42.82 82.86 47.02L93.24 36.63C85.57 29.84 75.35 26 64 26Z" fill="#EA4335"/>
  <path d="M30.27 45.34C27.52 50.04 26 55.46 26 61.25C26 67.03 27.48 72.38 30.18 77.05L41.03 68.68C39.73 66.28 39 63.55 39 61.25C39 58.86 39.76 56.05 41.1 53.74L30.27 45.34Z" fill="#FBBC04"/>
  <path d="M64 96.5C52.81 96.5 43.35 90.39 38.39 81.36L27.5 89.7C34.2 101.47 47.24 109.5 64 109.5C75.01 109.5 84.84 105.88 92.35 99.08L81.05 90.32C76.49 94.19 70.62 96.5 64 96.5Z" fill="#34A853"/>
  <path d="M102 61.95C102 59.49 101.79 57.98 101.35 56.4H64V69.11H85.93C85.49 72.23 83.14 76.93 77.92 80.09L88.87 88.57C97.93 80.2 102 71.29 102 61.95Z" fill="#4285F4"/>
</svg>
